{"title":"Polar Bears A Summer Odyssey 2012 BRRip XviD MP3-RARBG","uid":11919014,"size":678903215,"categoryP":"video","categoryS":"other","magnet":"?xt=urn:btih:23d48cde03eab5f1aa88e21074d97d0952b42808&amp;dn=Polar+Bears+A+Summer+Odyssey+2012+BRRip+XviD+MP3-RARBG&amp;tr=udp%3A%2F%2Ftracker.openbittorrent.com%3A80&amp;tr=udp%3A%2F%2Fopen.demonii.com%3A1337&amp;tr=udp%3A%2F%2Ftracker.coppersurfer.tk%3A6969&amp;tr=udp%3A%2F%2Fexodus.desync.com%3A6969","seeders":0,"leechers":1,"uploader":"keloocable","files":4,"time":1431599621,"description":"Video\nID : 0\nFormat : MPEG-4 Visual\nFormat profile : Simple@L5\nFormat settings, BVOP : No\nFormat settings, QPel : No\nFormat settings, GMC : No warppoints\nFormat settings, Matrix : Default (H.263)\nCodec ID : XVID\nCodec ID/Hint : XviD\nDuration : 50mn 5s\nBit rate : 1 599 Kbps\nWidth : 720 pixels\nHeight : 400 pixels\nDisplay aspect ratio : 16:9\nFrame rate : 23.976 fps\nColor space : YUV\nChroma subsampling : 4:2:0\nBit depth : 8 bits\nScan type : Progressive\nCompression mode : Lossy\nBits/(Pixel*Frame) : 0.232\nStream size : 573 MiB (89%)\nTitle : RARBG.COM - Polar.Bears.A.Summer.Odyssey.2012.BRRip.XviD.MP3-RARBG\nWriting library : Lavc56.19.100\n\nAudio\nID : 1\nFormat : MPEG Audio\nFormat version : Version 1\nFormat profile : Layer 3\nMode : Joint stereo\nMode extension : MS Stereo\nCodec ID : 55\nCodec ID/Hint : MP3\nDuration : 50mn 5s\nBit rate mode : Constant\nBit rate : 192 Kbps\nChannel(s) : 2 channels\nSampling rate : 48.0 KHz\nCompression mode : Lossy\nStream size : 68.8 MiB (11%)\nAlignment : Aligned on interleaves\nInterleave, duration : 24 ms (0.58 video frame)\nInterleave, preload duration : 24 ms\nTitle : RARBG.COM - Polar.Bears.A.Summer.Odyssey.2012.BRRip.XviD.MP3-RARBG\nWriting library : LAME3.99.5","torrent":{"xt":"urn:btih:23d48cde03eab5f1aa88e21074d97d0952b42808","amp;dn":"Polar+Bears+A+Summer+Odyssey+2012+BRRip+XviD+MP3-RARBG","amp;tr":["udp%3A%2F%2Ftracker.openbittorrent.com%3A80","udp%3A%2F%2Fopen.demonii.com%3A1337","udp%3A%2F%2Ftracker.coppersurfer.tk%3A6969","udp%3A%2F%2Fexodus.desync.com%3A6969"],"infoHash":"23d48cde03eab5f1aa88e21074d97d0952b42808","infoHashBuffer":{"type":"Buffer","data":[35,212,140,222,3,234,181,241,170,136,226,16,116,217,125,9,82,180,40,8]},"announce":[],"urlList":[]}}